<svg width="90" height="90" viewBox="0 0 90 90" fill="none" xmlns="http://www.w3.org/2000/svg">
<path d="M55.6584 64.1626C54.6631 64.3595 31.0545 67.3509 31.0545 67.3509C31.0545 67.3509 30.5568 71.5345 31.2514 72.929C31.9459 74.3235 36.4303 77.5118 44.8959 77.5118C53.3615 77.5118 58.0428 74.8212 58.7428 73.2298C59.4428 71.6384 58.442 64.8626 58.442 64.8626L55.6584 64.1626Z" fill="#77A3AB"/>
<path d="M28.6322 33.4282L12.5596 40.8712C12.5596 40.8712 13.8447 56.0142 23.8963 64.3048C38.3611 76.2321 60.0174 72.6774 69.9979 61.0071C79.1088 50.354 77.4408 36.2228 77.4408 36.2228L28.6322 33.4282V33.4282Z" fill="#A7D0D6"/>
<path d="M12.1601 37.617C11.7116 44.1084 18.1757 52.0435 44.8249 52.3443C72.6171 52.656 82.4663 38.9678 76.2429 31.8146C70.0194 24.6615 54.8819 23.8303 44.4093 23.9342C33.9366 24.0381 12.8874 27.0787 12.1601 37.617Z" fill="#77A3AC"/>
<path d="M15.6655 40.2642C15.6655 40.2642 15.3756 38.9134 15.846 37.5025C16.3163 36.0916 17.1585 35.6814 17.2788 35.2275C17.3991 34.7736 16.2452 32.3728 18.1921 29.2173C20.1389 26.0619 21.4022 26.7291 21.9381 26.0619C22.4741 25.3947 22.4467 23.1416 24.8639 20.9923C27.2811 18.8431 29.496 19.0455 29.496 19.0455C29.496 19.0455 30.5733 16.2236 33.1874 15.1517C35.8014 14.0798 38.4374 14.7416 38.4374 14.7416C38.4374 14.7416 40.7889 12.5923 44.0811 12.5267C47.3733 12.4611 48.3139 13.4017 49.0522 13.4673C49.7905 13.533 51.535 12.6634 54.6249 13.8009C57.7147 14.9439 57.7585 16.6775 58.453 16.9564C59.1475 17.2353 61.0069 16.6884 63.8288 18.9689C66.6506 21.2494 66.1858 22.2994 66.585 22.7314C66.9788 23.1634 69.6311 23.1798 71.0858 26.8931C72.1577 29.6275 71.5835 31.6345 71.6928 31.9298C71.8022 32.2252 73.3225 33.8056 73.9788 35.4244C74.5858 36.9337 74.8538 39.0502 74.8538 39.0502C74.8538 39.0502 73.4428 41.522 70.0249 43.7697C66.41 46.1486 25.8155 46.2525 23.1249 45.3939C18.4764 43.9228 15.6655 40.2642 15.6655 40.2642V40.2642Z" fill="#CDCBC0"/>
<path d="M20.1009 36.1679C20.1009 36.1679 19.8002 32.7882 20.708 30.9288C21.9822 28.3093 24.4705 28.0413 24.4705 28.0413C24.4705 28.0413 24.7494 25.0554 26.8877 23.4093C29.5072 21.3968 30.5134 21.9327 31.3884 21.1233C32.2634 20.3194 32.7994 18.9085 34.9486 17.9679C37.0978 17.0272 38.8423 17.6343 39.5806 17.2952C40.3189 16.9561 41.5002 15.578 43.8517 15.4194C46.8759 15.2171 47.0728 16.3874 48.8064 16.5733C50.0369 16.7046 50.9556 15.9772 53.5752 16.7811C56.1947 17.585 56.2822 19.171 57.1134 19.7124C57.9447 20.2538 59.9955 19.7561 62.2158 21.4569C64.2283 22.9991 64.2064 24.4264 64.7697 25.0171C65.3275 25.6077 66.9845 25.821 68.1931 28.9819C69.1994 31.6124 68.4556 32.3889 68.7291 33.2147C69.0025 34.0405 70.5009 34.9046 71.4142 37.3764C72.5572 40.4663 72.2181 42.0796 72.2181 42.0796C72.2181 42.0796 66.7111 49.4132 42.2658 49.1288C24.6673 48.9264 18.3564 42.8178 18.3564 42.8178C18.3564 42.8178 18.0884 39.5257 18.7611 38.2514C19.4337 36.9772 20.1009 36.1679 20.1009 36.1679V36.1679Z" fill="white"/>
<path d="M43.4524 47.324C43.9938 48.5436 46.1266 48.7459 47.9203 46.7389C49.5281 44.9342 48.5875 42.1561 46.8649 42.3912C45.2953 42.6045 45.8094 44.2342 45.0602 44.8576C44.311 45.4811 42.982 46.2631 43.4524 47.324ZM51.836 39.8811C52.3008 40.8764 55.0899 40.6631 56.1453 38.8256C57.2008 36.9826 57.0477 34.292 55.5164 34.3193C53.5203 34.3576 54.2641 36.3975 53.5586 37.0209C52.8531 37.6443 51.0539 38.1967 51.836 39.8811V39.8811ZM62.6094 29.7311C61.461 30.1029 62.0625 31.6123 61.5922 32.6295C61.1219 33.6467 59.8695 34.7842 60.8485 35.6482C61.8274 36.5123 64.0586 35.1014 64.3758 32.9467C64.682 30.792 63.8235 29.3428 62.6094 29.7311V29.7311ZM57.7641 43.3592C57.0313 44.535 55.6477 43.9443 55.3742 45.1639C55.1008 46.3779 57.9227 46.81 59.4867 45.3607C61.0563 43.9115 60.6242 41.4451 59.6453 41.2482C58.6664 41.0459 58.3492 42.4186 57.7641 43.3592ZM53.3453 29.9389C53.9906 30.6607 56.5774 29.8951 57.436 27.3193C58.2945 24.7436 56.5992 23.0811 55.4563 23.6662C54.3133 24.2514 55.1281 25.4928 54.8547 26.2967C54.5813 27.1006 52.082 28.5279 53.3453 29.9389Z" fill="#D4D4D4"/>
<path d="M45 5C37.0888 5 29.3552 7.34596 22.7772 11.7412C16.1992 16.1365 11.0723 22.3836 8.04484 29.6927C5.01733 37.0017 4.2252 45.0444 5.76861 52.8036C7.31202 60.5629 11.1216 67.6902 16.7157 73.2843C22.3098 78.8784 29.4372 82.688 37.1964 84.2314C44.9556 85.7748 52.9983 84.9827 60.3074 81.9552C67.6164 78.9277 73.8635 73.8008 78.2588 67.2228C82.6541 60.6448 85 52.9113 85 45C85 34.3913 80.7857 24.2172 73.2843 16.7157C65.7828 9.21427 55.6087 5 45 5V5ZM10 45C10.0024 36.5897 13.0483 28.4644 18.575 22.125L67.875 71.425C62.8048 75.8033 56.5845 78.6346 49.9529 79.5826C43.3213 80.5306 36.5569 79.5555 30.463 76.7731C24.3691 73.9907 19.2017 69.5179 15.5745 63.8858C11.9472 58.2538 10.0125 51.699 10 45V45ZM71.425 67.875L22.125 18.575C28.8334 12.9698 37.3966 10.078 46.1297 10.4684C54.8629 10.8589 63.1338 14.5033 69.3153 20.6848C75.4967 26.8662 79.1411 35.1371 79.5316 43.8703C79.922 52.6035 77.0302 61.1666 71.425 67.875Z" fill="#57555C"/>
</svg>
